# xmcd
#
# Track frame offsets:
#   150
#   17578
#   31991
#   47887
#   67069
#   87628
#   100832
#   121393
#   138210
#   151538
#   169217
#
# Disc length: 2495 seconds
#
# Revision: 0
# Processed by: cddbd v1.5.1PL0 Copyright (c) Steve Scherf et al.
# Submitted via: Media_Universe 3.0
#
DISCID=8b09bd0b
DTITLE=Garth Brooks - In Pieces
DYEAR=1900
DGENRE=Country
TTITLE0=Standing Outside The Fire
TTITLE1=The Night I Called The Old Man Out
TTITLE2=American Honky Tonk Bar Association
TTITLE3=One Night A Day
TTITLE4=Aint Going Down (Till The Sun Comes Up)
TTITLE5=Anonymous
TTITLE6=Kickin And Screamin
TTITLE7=The Red Strokes
TTITLE8=Calling Baton Rouge
TTITLE9=The Night Will Only Know
TTITLE10=The Cowboy Song
EXTD=
EXTT0=
EXTT1=
EXTT2=
EXTT3=
EXTT4=
EXTT5=
EXTT6=
EXTT7=
EXTT8=
EXTT9=
EXTT10=
PLAYORDER=
